<svg width="24" height="29" viewBox="0 0 24 29" fill="none" xmlns="http://www.w3.org/2000/svg">
<path d="M1 2.07625V26.3988" stroke="white" stroke-width="0.5" stroke-linecap="round"/>
<path d="M1.07764 1H19.5143" stroke="white" stroke-width="0.5" stroke-linecap="round"/>
<path d="M19.5141 2.07625L23 4.66863V28H4.25352L1 26.3988" stroke="white" stroke-width="0.5" stroke-linecap="round"/>
<path d="M1.23208 2.15249L4.64053 4.51612M4.64053 4.51612H22.6124M4.64053 4.51612V27.7713M1.07715 4.66862L2.62644 5.65982" stroke="white" stroke-width="0.5" stroke-linecap="round"/>
<path d="M1.07715 6.34604L3.01377 7.56598" stroke="white" stroke-width="0.5" stroke-linecap="round"/>
<path d="M1.07715 14.5044L2.47151 15.2669M1.07715 16.2581L2.9363 17.2493M1.07715 22.0528L2.47151 22.739M1.07715 23.8065L2.9363 24.7214" stroke="white" stroke-width="0.5" stroke-linecap="round"/>
<path d="M2.78174 3.21994H15.7958M17.0353 3.21994H18.8944" stroke="white" stroke-width="0.5" stroke-linecap="round"/>
<path d="M15.8731 9.77712H8.43652V23.1202H19.2816V11.8566" stroke="white" stroke-width="0.5" stroke-linecap="round"/>
<path d="M18 10.9736V4.97361H21V10.9736L19.5 9.998L18 10.9736Z" fill="white" stroke="white" stroke-width="0.5" stroke-linecap="round"/>
</svg>
