<svg width="42" height="28" viewBox="0 0 42 28" fill="none" xmlns="http://www.w3.org/2000/svg">
<path d="M1 5.5256V26.6451C9.15166 25.314 10.3839 25.314 20.8104 27C29.5308 25.2253 33.7014 25.4027 41 26.4676V5.5256C40.2417 5.17065 40.0521 5.17065 39.0095 5.17065V3.12969M39.0095 5.88055V24.2491C34.8389 23.0068 25.3602 23.0956 20.9052 24.6928M20.9052 24.6928C15.1232 22.7406 7.91943 23.0956 2.80095 24.2491V5.88055V4.72696M20.9052 24.6928V20.0785M20.9052 3.3959V15.1092M20.9052 16.6177V18.57" stroke="white" stroke-width="0.5" stroke-linecap="round"/>
<path d="M35.9763 2V2.24232V8L34.5 6.5L32.5 8V2.24232V2C32.5 1.44772 32.9477 1 33.5 1H34.9763C35.5286 1 35.9763 1.44771 35.9763 2Z" fill="white"/>
<path d="M39.0095 3.04096C38.0616 2.59727 37.3981 2.41979 35.9763 2.24232M35.9763 2.24232V2C35.9763 1.44771 35.5286 1 34.9763 1H33.5C32.9477 1 32.5 1.44772 32.5 2V2.24232M35.9763 2.24232V8L34.5 6.5L32.5 8V2.24232M32.5 2.24232C29.4668 2.24232 24.3175 2.06485 21.1896 3.30717C15.1232 1.53242 8.01422 1.7099 2.80095 2.86348V4.90444C2.13744 4.90444 1.47393 4.99317 1 5.43686" stroke="white" stroke-width="0.5" stroke-linecap="round"/>
</svg>
