<svg width="90" height="64" viewBox="0 0 90 64" fill="none" xmlns="http://www.w3.org/2000/svg">
<path d="M24 54.0668C23.1716 54.0668 22.5 54.7383 22.5 55.5668C22.5 56.3952 23.1716 57.0668 24 57.0668V54.0668ZM65.0598 57.0668C65.8883 57.0668 66.5598 56.3952 66.5598 55.5668C66.5598 54.7383 65.8883 54.0668 65.0598 54.0668V57.0668ZM17.8448 47.7473C17.0164 47.7473 16.3448 48.4189 16.3448 49.2473C16.3448 50.0758 17.0164 50.7473 17.8448 50.7473V47.7473ZM72.5 50.7473C73.3284 50.7473 74 50.0758 74 49.2473C74 48.4189 73.3284 47.7473 72.5 47.7473V50.7473ZM1.5 41.3508C0.671573 41.3508 0 42.0224 0 42.8508C0 43.6793 0.671573 44.3508 1.5 44.3508V41.3508ZM88 44.3508C88.8284 44.3508 89.5 43.6793 89.5 42.8508C89.5 42.0224 88.8284 41.3508 88 41.3508V44.3508ZM30.2353 60.3235C29.4069 60.3235 28.7353 60.9951 28.7353 61.8235C28.7353 62.652 29.4069 63.3235 30.2353 63.3235V60.3235ZM58 63.3235C58.8284 63.3235 59.5 62.652 59.5 61.8235C59.5 60.9951 58.8284 60.3235 58 60.3235V63.3235ZM24 57.0668H65.0598V54.0668H24V57.0668ZM17.8448 50.7473H72.5V47.7473H17.8448V50.7473ZM1.5 44.3508H88V41.3508H1.5V44.3508ZM5.04551 32.7394L19.2306 37.7633L20.2322 34.9354L6.04705 29.9115L5.04551 32.7394ZM9.26106 15.5864L23.4462 28.5894L25.4733 26.3779L11.2882 13.3749L9.26106 15.5864ZM26.631 9.76059L31.6549 21.286L34.405 20.0872L29.3811 8.56184L26.631 9.76059ZM42.4643 0V18.0269H45.4643V0H42.4643ZM58.8561 8.53263L53.5367 20.058L56.2606 21.3152L61.58 9.7898L58.8561 8.53263ZM75.7438 13.384L62.4453 25.796L64.4923 27.9892L77.7908 15.5772L75.7438 13.384ZM69.8103 39.2637L84.5864 34.8308L83.7244 31.9574L68.9482 36.3902L69.8103 39.2637ZM30.2353 63.3235H58V60.3235H30.2353V63.3235Z" fill="white"/>
<path d="M65.6509 42.4075C64.4688 42.4075 56.1907 42.4075 44.521 42.4075C32.8513 42.4075 23.3911 42.4075 23.3911 42.4075C23.3911 30.7378 32.8513 21.2777 44.521 21.2777C56.1907 21.2777 65.6509 30.7378 65.6509 42.4075Z" fill="white"/>
</svg>
